<svg xmlns="http://www.w3.org/2000/svg" viewBox="0 0 100 100">
  <defs>
    <linearGradient id="rainbow-gradient" x1="0%" y1="0%" x2="100%" y2="100%">
      <stop offset="0%" style="stop-color:#FF6B6B"/>
      <stop offset="20%" style="stop-color:#FFA94D"/>
      <stop offset="40%" style="stop-color:#FFE066"/>
      <stop offset="60%" style="stop-color:#69DB7C"/>
      <stop offset="80%" style="stop-color:#4DABF7"/>
      <stop offset="100%" style="stop-color:#DA77F2"/>
    </linearGradient>
  </defs>

  <!-- 彩虹弧线 -->
  <path d="M 10 90 A 40 40 0 0 1 90 90" fill="none" stroke="#FF6B6B" stroke-width="8" stroke-linecap="round"/>
  <path d="M 15 90 A 35 35 0 0 1 85 90" fill="none" stroke="#FFA94D" stroke-width="7" stroke-linecap="round"/>
  <path d="M 20 90 A 30 30 0 0 1 80 90" fill="none" stroke="#FFE066" stroke-width="7" stroke-linecap="round"/>
  <path d="M 25 90 A 25 25 0 0 1 75 90" fill="none" stroke="#69DB7C" stroke-width="7" stroke-linecap="round"/>
  <path d="M 30 90 A 20 20 0 0 1 70 90" fill="none" stroke="#4DABF7" stroke-width="7" stroke-linecap="round"/>
  <path d="M 35 90 A 15 15 0 0 1 65 90" fill="none" stroke="#DA77F2" stroke-width="7" stroke-linecap="round"/>

  <!-- 小脸 -->
  <circle cx="50" cy="55" r="15" fill="#FFF5E6"/>
  <circle cx="44" cy="52" r="3" fill="#333"/>
  <circle cx="56" cy="52" r="3" fill="#333"/>
  <circle cx="45" cy="50" r="1.5" fill="white"/>
  <circle cx="57" cy="50" r="1.5" fill="white"/>
  <path d="M 42 60 Q 50 68 58 60" stroke="#FF6B6B" stroke-width="2" fill="none" stroke-linecap="round"/>
  <ellipse cx="40" cy="58" rx="4" ry="2" fill="#FFB6C1" opacity="0.5"/>
  <ellipse cx="60" cy="58" rx="4" ry="2" fill="#FFB6C1" opacity="0.5"/>
</svg>
